<svg width="51" height="51" fill="none" xmlns="http://www.w3.org/2000/svg"><path fill-rule="evenodd" clip-rule="evenodd" d="M25.5 47.813a22.313 22.313 0 100-44.626 22.313 22.313 0 000 44.626zM25.5 0a25.5 25.5 0 110 51 25.5 25.5 0 010-51zm11.156 23.906a1.594 1.594 0 010 3.188H18.191l6.844 6.84a1.596 1.596 0 01-2.257 2.257l-9.563-9.563a1.593 1.593 0 010-2.256l9.563-9.563a1.596 1.596 0 112.257 2.257l-6.844 6.84h18.465z" fill="#BE9A5F"/><path fill-rule="evenodd" clip-rule="evenodd" d="M25.5 47.813a22.313 22.313 0 100-44.626 22.313 22.313 0 000 44.626zM25.5 0a25.5 25.5 0 110 51 25.5 25.5 0 010-51zm11.156 23.906a1.594 1.594 0 010 3.188H18.191l6.844 6.84a1.596 1.596 0 01-2.257 2.257l-9.563-9.563a1.593 1.593 0 010-2.256l9.563-9.563a1.596 1.596 0 112.257 2.257l-6.844 6.84h18.465z" fill="#000" fill-opacity=".2"/><path fill-rule="evenodd" clip-rule="evenodd" d="M25.5 47.813a22.313 22.313 0 100-44.626 22.313 22.313 0 000 44.626zM25.5 0a25.5 25.5 0 110 51 25.5 25.5 0 010-51zm11.156 23.906a1.594 1.594 0 010 3.188H18.191l6.844 6.84a1.596 1.596 0 01-2.257 2.257l-9.563-9.563a1.593 1.593 0 010-2.256l9.563-9.563a1.596 1.596 0 112.257 2.257l-6.844 6.84h18.465z" fill="#000" fill-opacity=".2"/></svg>