<svg width="64" height="64" fill="none" xmlns="http://www.w3.org/2000/svg"><path fill-rule="evenodd" clip-rule="evenodd" d="M4 32a28 28 0 1056 0 28 28 0 00-56 0zm60 0a32 32 0 11-64 0 32 32 0 0164 0zM34 46a2 2 0 01-4 0V22.828l-8.584 8.588a2.003 2.003 0 01-2.832-2.832l12-12a2 2 0 012.832 0l12 12a2.003 2.003 0 01-2.832 2.832L34 22.828V46z" fill="#BE9A5F"/><path fill-rule="evenodd" clip-rule="evenodd" d="M4 32a28 28 0 1056 0 28 28 0 00-56 0zm60 0a32 32 0 11-64 0 32 32 0 0164 0zM34 46a2 2 0 01-4 0V22.828l-8.584 8.588a2.003 2.003 0 01-2.832-2.832l12-12a2 2 0 012.832 0l12 12a2.003 2.003 0 01-2.832 2.832L34 22.828V46z" fill="#000" fill-opacity=".2"/><path fill-rule="evenodd" clip-rule="evenodd" d="M4 32a28 28 0 1056 0 28 28 0 00-56 0zm60 0a32 32 0 11-64 0 32 32 0 0164 0zM34 46a2 2 0 01-4 0V22.828l-8.584 8.588a2.003 2.003 0 01-2.832-2.832l12-12a2 2 0 012.832 0l12 12a2.003 2.003 0 01-2.832 2.832L34 22.828V46z" fill="#000" fill-opacity=".2"/></svg>