<svg width="44" height="44" fill="none" xmlns="http://www.w3.org/2000/svg"><path d="M28.24 16.727a1 1 0 00-1.38-1.447l1.38 1.447zM15.038 26.55a1 1 0 001.38 1.447l-1.38-1.447zm11.512 1.69a1 1 0 001.448-1.38l-1.448 1.38zm-9.823-13.202a1 1 0 10-1.447 1.38l1.447-1.38zm10.133.242l-5.911 5.635 1.38 1.447 5.91-5.635-1.38-1.447zm-5.911 5.635l-5.911 5.635 1.38 1.447 5.91-5.635-1.38-1.447zm-.034 1.413l5.635 5.912 1.448-1.38-5.636-5.912-1.447 1.38zm1.448-1.38l-5.636-5.91-1.447 1.38 5.635 5.91 1.448-1.38zm12.674 14.744c-7.762 7.4-20.052 7.106-27.452-.656l-1.447 1.38c8.161 8.562 21.718 8.885 30.279.724l-1.38-1.448zm-27.452-.656C.185 27.275.48 14.984 8.241 7.585L6.86 6.137c-8.56 8.163-8.884 21.718-.722 30.28l1.447-1.38zm.656-27.451c7.761-7.4 20.052-7.106 27.451.656l1.448-1.38C28.978-1.7 15.422-2.024 6.86 6.137l1.38 1.448zm27.451.656c7.4 7.761 7.106 20.052-.655 27.451l1.38 1.448c8.56-8.162 8.884-21.718.723-30.28l-1.448 1.38z" fill="#BE9A5F"/><path d="M28.24 16.727a1 1 0 00-1.38-1.447l1.38 1.447zM15.038 26.55a1 1 0 001.38 1.447l-1.38-1.447zm11.512 1.69a1 1 0 001.448-1.38l-1.448 1.38zm-9.823-13.202a1 1 0 10-1.447 1.38l1.447-1.38zm10.133.242l-5.911 5.635 1.38 1.447 5.91-5.635-1.38-1.447zm-5.911 5.635l-5.911 5.635 1.38 1.447 5.91-5.635-1.38-1.447zm-.034 1.413l5.635 5.912 1.448-1.38-5.636-5.912-1.447 1.38zm1.448-1.38l-5.636-5.91-1.447 1.38 5.635 5.91 1.448-1.38zm12.674 14.744c-7.762 7.4-20.052 7.106-27.452-.656l-1.447 1.38c8.161 8.562 21.718 8.885 30.279.724l-1.38-1.448zm-27.452-.656C.185 27.275.48 14.984 8.241 7.585L6.86 6.137c-8.56 8.163-8.884 21.718-.722 30.28l1.447-1.38zm.656-27.451c7.761-7.4 20.052-7.106 27.451.656l1.448-1.38C28.978-1.7 15.422-2.024 6.86 6.137l1.38 1.448zm27.451.656c7.4 7.761 7.106 20.052-.655 27.451l1.38 1.448c8.56-8.162 8.884-21.718.723-30.28l-1.448 1.38z" fill="#000" fill-opacity=".2"/><path d="M28.24 16.727a1 1 0 00-1.38-1.447l1.38 1.447zM15.038 26.55a1 1 0 001.38 1.447l-1.38-1.447zm11.512 1.69a1 1 0 001.448-1.38l-1.448 1.38zm-9.823-13.202a1 1 0 10-1.447 1.38l1.447-1.38zm10.133.242l-5.911 5.635 1.38 1.447 5.91-5.635-1.38-1.447zm-5.911 5.635l-5.911 5.635 1.38 1.447 5.91-5.635-1.38-1.447zm-.034 1.413l5.635 5.912 1.448-1.38-5.636-5.912-1.447 1.38zm1.448-1.38l-5.636-5.91-1.447 1.38 5.635 5.91 1.448-1.38zm12.674 14.744c-7.762 7.4-20.052 7.106-27.452-.656l-1.447 1.38c8.161 8.562 21.718 8.885 30.279.724l-1.38-1.448zm-27.452-.656C.185 27.275.48 14.984 8.241 7.585L6.86 6.137c-8.56 8.163-8.884 21.718-.722 30.28l1.447-1.38zm.656-27.451c7.761-7.4 20.052-7.106 27.451.656l1.448-1.38C28.978-1.7 15.422-2.024 6.86 6.137l1.38 1.448zm27.451.656c7.4 7.761 7.106 20.052-.655 27.451l1.38 1.448c8.56-8.162 8.884-21.718.723-30.28l-1.448 1.38z" fill="#000" fill-opacity=".2"/></svg>