<svg width="30" height="30" fill="none" xmlns="http://www.w3.org/2000/svg"><path d="M26.484 2.344h-1.406V0h-2.344v2.344H7.266V0H4.922v2.344H3.516A3.52 3.52 0 000 5.859v20.625A3.52 3.52 0 003.516 30h22.968A3.52 3.52 0 0030 26.484V5.86a3.52 3.52 0 00-3.516-3.515zm1.172 24.14c0 .646-.525 1.172-1.172 1.172H3.516a1.173 1.173 0 01-1.172-1.172V11.016h25.312v15.468zm0-17.812H2.344V5.859c0-.646.525-1.171 1.172-1.171h1.406V7.03h2.344V4.688h15.468V7.03h2.344V4.688h1.406c.646 0 1.172.525 1.172 1.171v2.813z" fill="#000"/><path d="M9.902 13.477H7.56v2.343h2.343v-2.343zm6.27 0h-2.344v2.343h2.344v-2.343zm6.269 0h-2.343v2.343h2.343v-2.343zM9.902 18.164H7.56v2.344h2.343v-2.344zm6.27 0h-2.344v2.344h2.344v-2.344zm-6.27 4.688H7.56v2.343h2.343v-2.343zm6.27 0h-2.344v2.343h2.344v-2.343zm6.269 0h-2.343v2.343h2.343v-2.343zm0-4.688h-2.343v2.344h2.343v-2.344zM13.535 0h2.637v7.09h-2.637V0z" fill="#000"/></svg>