<svg width="40" height="46" fill="none" xmlns="http://www.w3.org/2000/svg"><path d="M28.333 20.917V10.5a8.333 8.333 0 00-16.666 0v10.417M3.285 18.5a4.167 4.167 0 014.155-3.833h25.12a4.166 4.166 0 014.155 3.833l1.672 20.833a4.166 4.166 0 01-4.152 4.5H5.765a4.166 4.166 0 01-4.153-4.5L3.285 18.5z" stroke="#BE9A5F" stroke-width="3" stroke-linecap="round" stroke-linejoin="round"/><path d="M28.333 20.917V10.5a8.333 8.333 0 00-16.666 0v10.417M3.285 18.5a4.167 4.167 0 014.155-3.833h25.12a4.166 4.166 0 014.155 3.833l1.672 20.833a4.166 4.166 0 01-4.152 4.5H5.765a4.166 4.166 0 01-4.153-4.5L3.285 18.5z" stroke="#000" stroke-opacity=".2" stroke-width="3" stroke-linecap="round" stroke-linejoin="round"/><path d="M28.333 20.917V10.5a8.333 8.333 0 00-16.666 0v10.417M3.285 18.5a4.167 4.167 0 014.155-3.833h25.12a4.166 4.166 0 014.155 3.833l1.672 20.833a4.166 4.166 0 01-4.152 4.5H5.765a4.166 4.166 0 01-4.153-4.5L3.285 18.5z" stroke="#000" stroke-opacity=".2" stroke-width="3" stroke-linecap="round" stroke-linejoin="round"/></svg>