<svg width="85" height="84" fill="none" xmlns="http://www.w3.org/2000/svg"><path fill-rule="evenodd" clip-rule="evenodd" d="M25.184.252C29.665.046 31.091 0 42.5 0c11.409 0 12.837.05 17.312.252 4.475.202 7.53.916 10.202 1.951a20.663 20.663 0 017.438 4.85 20.514 20.514 0 014.841 7.433c1.039 2.673 1.749 5.727 1.955 10.195.206 4.486.252 5.914.252 17.319 0 11.409-.05 12.837-.252 17.316-.202 4.467-.916 7.521-1.955 10.194a20.602 20.602 0 01-4.841 7.442 20.594 20.594 0 01-7.438 4.841c-2.673 1.039-5.727 1.749-10.195 1.955-4.482.206-5.91.252-17.319.252-11.409 0-12.837-.05-17.316-.252-4.467-.202-7.521-.916-10.194-1.955a20.607 20.607 0 01-7.442-4.841 20.587 20.587 0 01-4.845-7.438C1.668 66.84.958 63.787.752 59.319.546 54.833.5 53.405.5 42c0-11.409.05-12.837.252-17.312.202-4.474.916-7.53 1.951-10.202a20.602 20.602 0 014.85-7.438 20.587 20.587 0 017.433-4.845C17.66 1.168 20.713.458 25.181.252h.003zm34.288 7.56c-4.43-.202-5.758-.244-16.972-.244-11.214 0-12.543.042-16.972.244-4.097.187-6.319.87-7.8 1.447-1.96.764-3.36 1.669-4.83 3.139a13.03 13.03 0 00-3.139 4.83c-.576 1.481-1.26 3.703-1.447 7.8-.202 4.43-.244 5.758-.244 16.972 0 11.214.042 12.543.244 16.972.187 4.097.87 6.319 1.447 7.8a13.039 13.039 0 003.139 4.83 13.039 13.039 0 004.83 3.139c1.481.576 3.703 1.26 7.8 1.447 4.43.202 5.754.244 16.972.244 11.218 0 12.543-.042 16.972-.244 4.097-.187 6.319-.87 7.8-1.447 1.96-.764 3.36-1.669 4.83-3.139a13.039 13.039 0 003.139-4.83c.576-1.481 1.26-3.703 1.447-7.8.202-4.43.244-5.758.244-16.972 0-11.214-.042-12.543-.244-16.972-.187-4.097-.87-6.319-1.447-7.8-.764-1.96-1.669-3.36-3.139-4.83a13.033 13.033 0 00-4.83-3.139c-1.481-.576-3.703-1.26-7.8-1.447zM37.135 54.948a14.01 14.01 0 0015.273-22.856 14.014 14.014 0 00-23.315 13.976 14.013 14.013 0 008.043 8.88zm-9.9-28.213a21.588 21.588 0 1130.53 30.53 21.588 21.588 0 01-30.53-30.53zm41.641-3.108a5.103 5.103 0 00.107-7.323 5.105 5.105 0 10-.107 7.323z" fill="#BE9A5F"/><path fill-rule="evenodd" clip-rule="evenodd" d="M25.184.252C29.665.046 31.091 0 42.5 0c11.409 0 12.837.05 17.312.252 4.475.202 7.53.916 10.202 1.951a20.663 20.663 0 017.438 4.85 20.514 20.514 0 014.841 7.433c1.039 2.673 1.749 5.727 1.955 10.195.206 4.486.252 5.914.252 17.319 0 11.409-.05 12.837-.252 17.316-.202 4.467-.916 7.521-1.955 10.194a20.602 20.602 0 01-4.841 7.442 20.594 20.594 0 01-7.438 4.841c-2.673 1.039-5.727 1.749-10.195 1.955-4.482.206-5.91.252-17.319.252-11.409 0-12.837-.05-17.316-.252-4.467-.202-7.521-.916-10.194-1.955a20.607 20.607 0 01-7.442-4.841 20.587 20.587 0 01-4.845-7.438C1.668 66.84.958 63.787.752 59.319.546 54.833.5 53.405.5 42c0-11.409.05-12.837.252-17.312.202-4.474.916-7.53 1.951-10.202a20.602 20.602 0 014.85-7.438 20.587 20.587 0 017.433-4.845C17.66 1.168 20.713.458 25.181.252h.003zm34.288 7.56c-4.43-.202-5.758-.244-16.972-.244-11.214 0-12.543.042-16.972.244-4.097.187-6.319.87-7.8 1.447-1.96.764-3.36 1.669-4.83 3.139a13.03 13.03 0 00-3.139 4.83c-.576 1.481-1.26 3.703-1.447 7.8-.202 4.43-.244 5.758-.244 16.972 0 11.214.042 12.543.244 16.972.187 4.097.87 6.319 1.447 7.8a13.039 13.039 0 003.139 4.83 13.039 13.039 0 004.83 3.139c1.481.576 3.703 1.26 7.8 1.447 4.43.202 5.754.244 16.972.244 11.218 0 12.543-.042 16.972-.244 4.097-.187 6.319-.87 7.8-1.447 1.96-.764 3.36-1.669 4.83-3.139a13.039 13.039 0 003.139-4.83c.576-1.481 1.26-3.703 1.447-7.8.202-4.43.244-5.758.244-16.972 0-11.214-.042-12.543-.244-16.972-.187-4.097-.87-6.319-1.447-7.8-.764-1.96-1.669-3.36-3.139-4.83a13.033 13.033 0 00-4.83-3.139c-1.481-.576-3.703-1.26-7.8-1.447zM37.135 54.948a14.01 14.01 0 0015.273-22.856 14.014 14.014 0 00-23.315 13.976 14.013 14.013 0 008.043 8.88zm-9.9-28.213a21.588 21.588 0 1130.53 30.53 21.588 21.588 0 01-30.53-30.53zm41.641-3.108a5.103 5.103 0 00.107-7.323 5.105 5.105 0 10-.107 7.323z" fill="#000" fill-opacity=".2"/><path fill-rule="evenodd" clip-rule="evenodd" d="M25.184.252C29.665.046 31.091 0 42.5 0c11.409 0 12.837.05 17.312.252 4.475.202 7.53.916 10.202 1.951a20.663 20.663 0 017.438 4.85 20.514 20.514 0 014.841 7.433c1.039 2.673 1.749 5.727 1.955 10.195.206 4.486.252 5.914.252 17.319 0 11.409-.05 12.837-.252 17.316-.202 4.467-.916 7.521-1.955 10.194a20.602 20.602 0 01-4.841 7.442 20.594 20.594 0 01-7.438 4.841c-2.673 1.039-5.727 1.749-10.195 1.955-4.482.206-5.91.252-17.319.252-11.409 0-12.837-.05-17.316-.252-4.467-.202-7.521-.916-10.194-1.955a20.607 20.607 0 01-7.442-4.841 20.587 20.587 0 01-4.845-7.438C1.668 66.84.958 63.787.752 59.319.546 54.833.5 53.405.5 42c0-11.409.05-12.837.252-17.312.202-4.474.916-7.53 1.951-10.202a20.602 20.602 0 014.85-7.438 20.587 20.587 0 017.433-4.845C17.66 1.168 20.713.458 25.181.252h.003zm34.288 7.56c-4.43-.202-5.758-.244-16.972-.244-11.214 0-12.543.042-16.972.244-4.097.187-6.319.87-7.8 1.447-1.96.764-3.36 1.669-4.83 3.139a13.03 13.03 0 00-3.139 4.83c-.576 1.481-1.26 3.703-1.447 7.8-.202 4.43-.244 5.758-.244 16.972 0 11.214.042 12.543.244 16.972.187 4.097.87 6.319 1.447 7.8a13.039 13.039 0 003.139 4.83 13.039 13.039 0 004.83 3.139c1.481.576 3.703 1.26 7.8 1.447 4.43.202 5.754.244 16.972.244 11.218 0 12.543-.042 16.972-.244 4.097-.187 6.319-.87 7.8-1.447 1.96-.764 3.36-1.669 4.83-3.139a13.039 13.039 0 003.139-4.83c.576-1.481 1.26-3.703 1.447-7.8.202-4.43.244-5.758.244-16.972 0-11.214-.042-12.543-.244-16.972-.187-4.097-.87-6.319-1.447-7.8-.764-1.96-1.669-3.36-3.139-4.83a13.033 13.033 0 00-4.83-3.139c-1.481-.576-3.703-1.26-7.8-1.447zM37.135 54.948a14.01 14.01 0 0015.273-22.856 14.014 14.014 0 00-23.315 13.976 14.013 14.013 0 008.043 8.88zm-9.9-28.213a21.588 21.588 0 1130.53 30.53 21.588 21.588 0 01-30.53-30.53zm41.641-3.108a5.103 5.103 0 00.107-7.323 5.105 5.105 0 10-.107 7.323z" fill="#000" fill-opacity=".2"/></svg>