<svg width="84" height="76" fill="none" xmlns="http://www.w3.org/2000/svg"><path d="M77.186.686a9.694 9.694 0 00-3.015.713h-.013c-.921.361-5.3 2.184-11.957 4.947l-23.855 9.942A82973.398 82973.398 0 004.402 30.442l.2-.077s-1.16.378-2.371 1.2a6.53 6.53 0 00-1.894 1.813c-.595.863-1.073 2.184-.895 3.55.29 2.308 1.803 3.693 2.889 4.457a9.628 9.628 0 002.146 1.136h.025l15.78 5.26c.708 2.248 4.808 15.59 5.794 18.663.582 1.835 1.147 2.983 1.855 3.86a4.57 4.57 0 001.225 1.122c.25.144.517.258.795.34l-.162-.04c.048.014.087.052.123.065.13.035.216.048.381.073 2.498.748 4.505-.786 4.505-.786l.113-.09 9.316-8.394 15.615 11.854.355.15c3.255 1.414 6.55.627 8.293-.76 1.754-1.398 2.436-3.186 2.436-3.186l.113-.288L83.106 9.192c.342-1.51.43-2.923.051-4.295a5.784 5.784 0 00-2.523-3.348 6.099 6.099 0 00-3.448-.863zm-.327 6.555c-.013.202.026.18-.064.566v.036L64.84 68.378c-.051.087-.139.276-.378.464-.252.198-.452.323-1.502-.09L43.862 54.264 32.326 64.67l2.423-15.318 31.204-28.78c1.286-1.184.856-1.434.856-1.434.09-1.451-1.942-.425-1.942-.425L25.52 42.834l-.013-.064-18.859-6.284v-.013l-.048-.01a.885.885 0 00.097-.038l.103-.05.1-.036s16.84-7.023 33.957-14.154c8.57-3.572 17.205-7.17 23.845-9.945 6.641-2.76 11.55-4.784 11.828-4.893.265-.102.139-.102.33-.102V7.24z" fill="#BE9A5F"/><path d="M77.186.686a9.694 9.694 0 00-3.015.713h-.013c-.921.361-5.3 2.184-11.957 4.947l-23.855 9.942A82973.398 82973.398 0 004.402 30.442l.2-.077s-1.16.378-2.371 1.2a6.53 6.53 0 00-1.894 1.813c-.595.863-1.073 2.184-.895 3.55.29 2.308 1.803 3.693 2.889 4.457a9.628 9.628 0 002.146 1.136h.025l15.78 5.26c.708 2.248 4.808 15.59 5.794 18.663.582 1.835 1.147 2.983 1.855 3.86a4.57 4.57 0 001.225 1.122c.25.144.517.258.795.34l-.162-.04c.048.014.087.052.123.065.13.035.216.048.381.073 2.498.748 4.505-.786 4.505-.786l.113-.09 9.316-8.394 15.615 11.854.355.15c3.255 1.414 6.55.627 8.293-.76 1.754-1.398 2.436-3.186 2.436-3.186l.113-.288L83.106 9.192c.342-1.51.43-2.923.051-4.295a5.784 5.784 0 00-2.523-3.348 6.099 6.099 0 00-3.448-.863zm-.327 6.555c-.013.202.026.18-.064.566v.036L64.84 68.378c-.051.087-.139.276-.378.464-.252.198-.452.323-1.502-.09L43.862 54.264 32.326 64.67l2.423-15.318 31.204-28.78c1.286-1.184.856-1.434.856-1.434.09-1.451-1.942-.425-1.942-.425L25.52 42.834l-.013-.064-18.859-6.284v-.013l-.048-.01a.885.885 0 00.097-.038l.103-.05.1-.036s16.84-7.023 33.957-14.154c8.57-3.572 17.205-7.17 23.845-9.945 6.641-2.76 11.55-4.784 11.828-4.893.265-.102.139-.102.33-.102V7.24z" fill="#000" fill-opacity=".2"/><path d="M77.186.686a9.694 9.694 0 00-3.015.713h-.013c-.921.361-5.3 2.184-11.957 4.947l-23.855 9.942A82973.398 82973.398 0 004.402 30.442l.2-.077s-1.16.378-2.371 1.2a6.53 6.53 0 00-1.894 1.813c-.595.863-1.073 2.184-.895 3.55.29 2.308 1.803 3.693 2.889 4.457a9.628 9.628 0 002.146 1.136h.025l15.78 5.26c.708 2.248 4.808 15.59 5.794 18.663.582 1.835 1.147 2.983 1.855 3.86a4.57 4.57 0 001.225 1.122c.25.144.517.258.795.34l-.162-.04c.048.014.087.052.123.065.13.035.216.048.381.073 2.498.748 4.505-.786 4.505-.786l.113-.09 9.316-8.394 15.615 11.854.355.15c3.255 1.414 6.55.627 8.293-.76 1.754-1.398 2.436-3.186 2.436-3.186l.113-.288L83.106 9.192c.342-1.51.43-2.923.051-4.295a5.784 5.784 0 00-2.523-3.348 6.099 6.099 0 00-3.448-.863zm-.327 6.555c-.013.202.026.18-.064.566v.036L64.84 68.378c-.051.087-.139.276-.378.464-.252.198-.452.323-1.502-.09L43.862 54.264 32.326 64.67l2.423-15.318 31.204-28.78c1.286-1.184.856-1.434.856-1.434.09-1.451-1.942-.425-1.942-.425L25.52 42.834l-.013-.064-18.859-6.284v-.013l-.048-.01a.885.885 0 00.097-.038l.103-.05.1-.036s16.84-7.023 33.957-14.154c8.57-3.572 17.205-7.17 23.845-9.945 6.641-2.76 11.55-4.784 11.828-4.893.265-.102.139-.102.33-.102V7.24z" fill="#000" fill-opacity=".2"/></svg>