<svg width="103" height="93" fill="none" xmlns="http://www.w3.org/2000/svg"><path d="M100.065 19.22a31.061 31.061 0 00-6.723-9.888 31.218 31.218 0 00-9.926-6.63 31.064 31.064 0 00-12.1-2.424 31.307 31.307 0 00-16.448 4.658A30.8 30.8 0 0051.5 7.337a30.8 30.8 0 00-3.368-2.4A31.307 31.307 0 0031.684.277c-4.195 0-8.26.813-12.1 2.425a31.151 31.151 0 00-9.926 6.629 30.88 30.88 0 00-6.723 9.889A30.908 30.908 0 00.453 31.39c0 3.977.804 8.122 2.399 12.338 1.335 3.523 3.25 7.178 5.695 10.868 3.876 5.84 9.205 11.932 15.822 18.107C35.335 82.939 46.194 90.01 46.656 90.297l2.8 1.815c1.242.8 2.837.8 4.077 0l2.8-1.816c.462-.298 11.31-7.357 22.287-17.592 6.617-6.175 11.946-12.266 15.822-18.107 2.446-3.69 4.372-7.345 5.695-10.868 1.596-4.216 2.399-8.36 2.399-12.338a30.678 30.678 0 00-2.47-12.17zM51.5 82.666S9.434 55.42 9.434 31.39c0-12.17 9.96-22.036 22.25-22.036 8.638 0 16.13 4.873 19.816 11.992A22.281 22.281 0 0171.316 9.354c12.29 0 22.25 9.866 22.25 22.036 0 24.03-42.066 51.274-42.066 51.274z" fill="#F90E0E"/></svg>