<svg width="108" height="107" fill="none" xmlns="http://www.w3.org/2000/svg"><mask id="a" fill="#fff"><path d="M29.373 53.5L50.802 71l28.571-35"/><path d="M107.373 53.5c0 29.547-23.953 53.5-53.5 53.5S.373 83.047.373 53.5 24.326 0 53.873 0s53.5 23.953 53.5 53.5z"/></mask><path d="M31.903 50.402a4 4 0 10-5.06 6.196l5.06-6.196zM50.802 71l-2.53 3.098 3.098 2.53 2.53-3.099L50.802 71zm-23.96-14.402l21.43 17.5 5.06-6.196-21.429-17.5-5.06 6.196zM53.9 73.53l28.572-35-6.198-5.059-28.571 35 6.197 5.06zm49.473-20.03c0 27.338-22.162 49.5-49.5 49.5v8c31.756 0 57.5-25.744 57.5-57.5h-8zm-49.5 49.5c-27.338 0-49.5-22.162-49.5-49.5h-8c0 31.756 25.744 57.5 57.5 57.5v-8zm-49.5-49.5c0-27.338 22.162-49.5 49.5-49.5v-8c-31.756 0-57.5 25.744-57.5 57.5h8zM53.873 4c27.338 0 49.5 22.162 49.5 49.5h8c0-31.756-25.744-57.5-57.5-57.5v8z" fill="#F7A826" mask="url(#a)"/></svg>