<svg width="43" height="43" fill="none" xmlns="http://www.w3.org/2000/svg"><path d="M23 13.667a1.5 1.5 0 10-3 0h3zm-3 15.666a1.5 1.5 0 003 0h-3zM29.334 23a1.5 1.5 0 000-3v3zm-15.667-3a1.5 1.5 0 100 3v-3zM20 13.667V21.5h3v-7.833h-3zm0 7.833v7.833h3V21.5h-3zm1.5 1.5h7.834v-3H21.5v3zm0-3h-7.833v3H21.5v-3zm18.084 1.5c0 9.987-8.097 18.083-18.084 18.083v3c11.644 0 21.084-9.439 21.084-21.083h-3zM21.5 39.583c-9.987 0-18.083-8.096-18.083-18.083h-3c0 11.644 9.44 21.083 21.083 21.083v-3zM3.417 21.5c0-9.987 8.096-18.083 18.083-18.083v-3C9.856.417.417 9.856.417 21.5h3zM21.5 3.417c9.988 0 18.084 8.096 18.084 18.083h3C42.584 9.856 33.144.417 21.5.417v3z" fill="#BE9A5F"/><path d="M23 13.667a1.5 1.5 0 10-3 0h3zm-3 15.666a1.5 1.5 0 003 0h-3zM29.334 23a1.5 1.5 0 000-3v3zm-15.667-3a1.5 1.5 0 100 3v-3zM20 13.667V21.5h3v-7.833h-3zm0 7.833v7.833h3V21.5h-3zm1.5 1.5h7.834v-3H21.5v3zm0-3h-7.833v3H21.5v-3zm18.084 1.5c0 9.987-8.097 18.083-18.084 18.083v3c11.644 0 21.084-9.439 21.084-21.083h-3zM21.5 39.583c-9.987 0-18.083-8.096-18.083-18.083h-3c0 11.644 9.44 21.083 21.083 21.083v-3zM3.417 21.5c0-9.987 8.096-18.083 18.083-18.083v-3C9.856.417.417 9.856.417 21.5h3zM21.5 3.417c9.988 0 18.084 8.096 18.084 18.083h3C42.584 9.856 33.144.417 21.5.417v3z" fill="#000" fill-opacity=".2"/><path d="M23 13.667a1.5 1.5 0 10-3 0h3zm-3 15.666a1.5 1.5 0 003 0h-3zM29.334 23a1.5 1.5 0 000-3v3zm-15.667-3a1.5 1.5 0 100 3v-3zM20 13.667V21.5h3v-7.833h-3zm0 7.833v7.833h3V21.5h-3zm1.5 1.5h7.834v-3H21.5v3zm0-3h-7.833v3H21.5v-3zm18.084 1.5c0 9.987-8.097 18.083-18.084 18.083v3c11.644 0 21.084-9.439 21.084-21.083h-3zM21.5 39.583c-9.987 0-18.083-8.096-18.083-18.083h-3c0 11.644 9.44 21.083 21.083 21.083v-3zM3.417 21.5c0-9.987 8.096-18.083 18.083-18.083v-3C9.856.417.417 9.856.417 21.5h3zM21.5 3.417c9.988 0 18.084 8.096 18.084 18.083h3C42.584 9.856 33.144.417 21.5.417v3z" fill="#000" fill-opacity=".2"/></svg>