<svg width="38" height="38" fill="none" xmlns="http://www.w3.org/2000/svg"><path d="M27.35 26.07c2.164-2.674 3.462-6.116 3.462-9.878 0-8.546-6.7-15.442-15.03-15.442C7.45.75.75 7.646.75 16.192s6.7 15.442 15.031 15.442a14.74 14.74 0 009.612-3.553l9.82 10.093.18.184.178-.184 1.608-1.652.17-.174-.17-.175-9.829-10.102zM3.524 16.193c0-6.997 5.466-12.605 12.257-12.605 6.791 0 12.257 5.608 12.257 12.605 0 6.997-5.466 12.605-12.257 12.605-6.791 0-12.257-5.608-12.257-12.605z" fill="#BE9A5F"/><path d="M27.35 26.07c2.164-2.674 3.462-6.116 3.462-9.878 0-8.546-6.7-15.442-15.03-15.442C7.45.75.75 7.646.75 16.192s6.7 15.442 15.031 15.442a14.74 14.74 0 009.612-3.553l9.82 10.093.18.184.178-.184 1.608-1.652.17-.174-.17-.175-9.829-10.102zM3.524 16.193c0-6.997 5.466-12.605 12.257-12.605 6.791 0 12.257 5.608 12.257 12.605 0 6.997-5.466 12.605-12.257 12.605-6.791 0-12.257-5.608-12.257-12.605z" fill="#000" fill-opacity=".2"/><path d="M27.35 26.07c2.164-2.674 3.462-6.116 3.462-9.878 0-8.546-6.7-15.442-15.03-15.442C7.45.75.75 7.646.75 16.192s6.7 15.442 15.031 15.442a14.74 14.74 0 009.612-3.553l9.82 10.093.18.184.178-.184 1.608-1.652.17-.174-.17-.175-9.829-10.102zM3.524 16.193c0-6.997 5.466-12.605 12.257-12.605 6.791 0 12.257 5.608 12.257 12.605 0 6.997-5.466 12.605-12.257 12.605-6.791 0-12.257-5.608-12.257-12.605z" fill="#000" fill-opacity=".2"/><path d="M27.35 26.07c2.164-2.674 3.462-6.116 3.462-9.878 0-8.546-6.7-15.442-15.03-15.442C7.45.75.75 7.646.75 16.192s6.7 15.442 15.031 15.442a14.74 14.74 0 009.612-3.553l9.82 10.093.18.184.178-.184 1.608-1.652.17-.174-.17-.175-9.829-10.102zM3.524 16.193c0-6.997 5.466-12.605 12.257-12.605 6.791 0 12.257 5.608 12.257 12.605 0 6.997-5.466 12.605-12.257 12.605-6.791 0-12.257-5.608-12.257-12.605z" stroke="#BE9A5F" stroke-width=".5"/><path d="M27.35 26.07c2.164-2.674 3.462-6.116 3.462-9.878 0-8.546-6.7-15.442-15.03-15.442C7.45.75.75 7.646.75 16.192s6.7 15.442 15.031 15.442a14.74 14.74 0 009.612-3.553l9.82 10.093.18.184.178-.184 1.608-1.652.17-.174-.17-.175-9.829-10.102zM3.524 16.193c0-6.997 5.466-12.605 12.257-12.605 6.791 0 12.257 5.608 12.257 12.605 0 6.997-5.466 12.605-12.257 12.605-6.791 0-12.257-5.608-12.257-12.605z" stroke="#000" stroke-opacity=".2" stroke-width=".5"/><path d="M27.35 26.07c2.164-2.674 3.462-6.116 3.462-9.878 0-8.546-6.7-15.442-15.03-15.442C7.45.75.75 7.646.75 16.192s6.7 15.442 15.031 15.442a14.74 14.74 0 009.612-3.553l9.82 10.093.18.184.178-.184 1.608-1.652.17-.174-.17-.175-9.829-10.102zM3.524 16.193c0-6.997 5.466-12.605 12.257-12.605 6.791 0 12.257 5.608 12.257 12.605 0 6.997-5.466 12.605-12.257 12.605-6.791 0-12.257-5.608-12.257-12.605z" stroke="#000" stroke-opacity=".2" stroke-width=".5"/></svg>