<svg width="44" height="40" fill="none" xmlns="http://www.w3.org/2000/svg"><path d="M40.43.359a5.078 5.078 0 00-1.578.374h-.007c-.483.189-2.776 1.144-6.263 2.59l-12.496 5.21c-8.966 3.735-17.78 7.414-17.78 7.414l.105-.04s-.608.197-1.242.628a3.42 3.42 0 00-.992.95c-.312.452-.562 1.143-.47 1.859.153 1.21.945 1.934 1.514 2.335a5.043 5.043 0 001.124.594h.014l8.265 2.756c.37 1.178 2.519 8.166 3.035 9.776.305.961.601 1.563.972 2.021.18.235.39.431.641.588.131.076.271.136.417.178l-.085-.02c.025.007.046.027.064.033.068.019.114.026.2.039 1.309.392 2.36-.412 2.36-.412l.059-.047 4.88-4.397 8.18 6.21.185.078c1.705.74 3.431.328 4.344-.399a4.377 4.377 0 001.276-1.668l.06-.15 6.32-32.043c.18-.79.225-1.531.027-2.25A3.03 3.03 0 0042.237.811 3.195 3.195 0 0040.43.36zm-.17 3.434c-.007.105.013.094-.034.296v.019l-6.261 31.71c-.027.044-.073.143-.198.242-.132.104-.237.17-.787-.047l-10.004-7.59-6.043 5.451 1.27-8.024 16.344-15.075c.674-.62.449-.75.449-.75.047-.761-1.018-.224-1.018-.224l-20.61 12.636-.007-.034-9.878-3.291v-.007l-.026-.005a.46.46 0 00.051-.02l.054-.027.053-.018s8.82-3.679 17.786-7.414c4.49-1.872 9.012-3.756 12.49-5.21a1371.85 1371.85 0 016.196-2.563c.139-.053.073-.053.173-.053v-.002z" fill="#BE9A5F"/><path d="M40.43.359a5.078 5.078 0 00-1.578.374h-.007c-.483.189-2.776 1.144-6.263 2.59l-12.496 5.21c-8.966 3.735-17.78 7.414-17.78 7.414l.105-.04s-.608.197-1.242.628a3.42 3.42 0 00-.992.95c-.312.452-.562 1.143-.47 1.859.153 1.21.945 1.934 1.514 2.335a5.043 5.043 0 001.124.594h.014l8.265 2.756c.37 1.178 2.519 8.166 3.035 9.776.305.961.601 1.563.972 2.021.18.235.39.431.641.588.131.076.271.136.417.178l-.085-.02c.025.007.046.027.064.033.068.019.114.026.2.039 1.309.392 2.36-.412 2.36-.412l.059-.047 4.88-4.397 8.18 6.21.185.078c1.705.74 3.431.328 4.344-.399a4.377 4.377 0 001.276-1.668l.06-.15 6.32-32.043c.18-.79.225-1.531.027-2.25A3.03 3.03 0 0042.237.811 3.195 3.195 0 0040.43.36zm-.17 3.434c-.007.105.013.094-.034.296v.019l-6.261 31.71c-.027.044-.073.143-.198.242-.132.104-.237.17-.787-.047l-10.004-7.59-6.043 5.451 1.27-8.024 16.344-15.075c.674-.62.449-.75.449-.75.047-.761-1.018-.224-1.018-.224l-20.61 12.636-.007-.034-9.878-3.291v-.007l-.026-.005a.46.46 0 00.051-.02l.054-.027.053-.018s8.82-3.679 17.786-7.414c4.49-1.872 9.012-3.756 12.49-5.21a1371.85 1371.85 0 016.196-2.563c.139-.053.073-.053.173-.053v-.002z" fill="#000" fill-opacity=".2"/><path d="M40.43.359a5.078 5.078 0 00-1.578.374h-.007c-.483.189-2.776 1.144-6.263 2.59l-12.496 5.21c-8.966 3.735-17.78 7.414-17.78 7.414l.105-.04s-.608.197-1.242.628a3.42 3.42 0 00-.992.95c-.312.452-.562 1.143-.47 1.859.153 1.21.945 1.934 1.514 2.335a5.043 5.043 0 001.124.594h.014l8.265 2.756c.37 1.178 2.519 8.166 3.035 9.776.305.961.601 1.563.972 2.021.18.235.39.431.641.588.131.076.271.136.417.178l-.085-.02c.025.007.046.027.064.033.068.019.114.026.2.039 1.309.392 2.36-.412 2.36-.412l.059-.047 4.88-4.397 8.18 6.21.185.078c1.705.74 3.431.328 4.344-.399a4.377 4.377 0 001.276-1.668l.06-.15 6.32-32.043c.18-.79.225-1.531.027-2.25A3.03 3.03 0 0042.237.811 3.195 3.195 0 0040.43.36zm-.17 3.434c-.007.105.013.094-.034.296v.019l-6.261 31.71c-.027.044-.073.143-.198.242-.132.104-.237.17-.787-.047l-10.004-7.59-6.043 5.451 1.27-8.024 16.344-15.075c.674-.62.449-.75.449-.75.047-.761-1.018-.224-1.018-.224l-20.61 12.636-.007-.034-9.878-3.291v-.007l-.026-.005a.46.46 0 00.051-.02l.054-.027.053-.018s8.82-3.679 17.786-7.414c4.49-1.872 9.012-3.756 12.49-5.21a1371.85 1371.85 0 016.196-2.563c.139-.053.073-.053.173-.053v-.002z" fill="#000" fill-opacity=".2"/></svg>