<svg width="67" height="23" fill="none" xmlns="http://www.w3.org/2000/svg"><path d="M34.65 7.505c-.037 3.053 2.687 4.756 4.739 5.769 2.108 1.039 2.817 1.705 2.808 2.634-.016 1.422-1.682 2.05-3.24 2.074-2.72.043-4.302-.743-5.56-1.338l-.98 4.644c1.262.588 3.598 1.102 6.02 1.124 5.686 0 9.406-2.842 9.426-7.25.022-5.593-7.64-5.902-7.587-8.402.018-.759.732-1.568 2.297-1.773.775-.104 2.914-.184 5.338.947l.952-4.493c-1.304-.48-2.98-.94-5.066-.94-5.352 0-9.116 2.88-9.146 7.004zM58.008.887c-1.038 0-1.913.613-2.304 1.555l-8.122 19.64h5.682l1.13-3.164h6.943l.656 3.164H67L62.63.887h-4.623zm.795 5.726l1.64 7.959H55.95l2.85-7.96zM27.762.887l-4.479 21.195h5.415L33.174.887h-5.412zm-8.01 0l-5.635 14.426-2.28-12.266c-.267-1.37-1.323-2.16-2.496-2.16H.129L0 1.503c1.891.415 4.04 1.086 5.342 1.803.796.438 1.024.82 1.285 1.862l4.318 16.914h5.721L25.438.887h-5.685" fill="url(#paint0_linear)"/><defs><linearGradient id="paint0_linear" x1="30.803" y1="22.852" x2="31.445" y2=".348" gradientUnits="userSpaceOnUse"><stop stop-color="#222357"/><stop offset="1" stop-color="#254AA5"/></linearGradient></defs></svg>