<svg width="55" height="80" fill="none" xmlns="http://www.w3.org/2000/svg"><path d="M10.302 63.732l-.028.043-.17.261-1.76 2.72L.29 79.169h3.573l8.055-12.433.762-1.188.032-.047a25.934 25.934 0 01-2.029-1.492c-.123-.087-.258-.182-.38-.277z" fill="#BE9A5F"/><path d="M10.302 63.732l-.028.043-.17.261-1.76 2.72L.29 79.169h3.573l8.055-12.433.762-1.188.032-.047a25.934 25.934 0 01-2.029-1.492c-.123-.087-.258-.182-.38-.277z" fill="#000" fill-opacity=".2"/><path d="M10.302 63.732l-.028.043-.17.261-1.76 2.72L.29 79.169h3.573l8.055-12.433.762-1.188.032-.047a25.934 25.934 0 01-2.029-1.492c-.123-.087-.258-.182-.38-.277z" fill="#000" fill-opacity=".2"/><path d="M37.818 62.6c-.99.553-2.021 1.03-3.085 1.425a21.789 21.789 0 01-15.086 0 21.909 21.909 0 01-3.175-1.465c-.453-.257-.898-.53-1.33-.815a21.937 21.937 0 01-2.383-1.837 16.698 16.698 0 01-1.147-1.093 21.694 21.694 0 01-5.827-11.124 21.662 21.662 0 011.32-12.48 21.73 21.73 0 018.025-9.67 21.825 21.825 0 0112.05-3.626 21.82 21.82 0 0112.05 3.627 21.729 21.729 0 018.026 9.668 21.656 21.656 0 011.32 12.481 21.694 21.694 0 01-5.827 11.124l-.14.147 1.656 2.565c.052-.048.096-.1.147-.147a24.672 24.672 0 006.728-11.444 24.617 24.617 0 00-.185-13.265 24.677 24.677 0 00-7.044-11.254 24.788 24.788 0 00-11.87-5.994 25.098 25.098 0 00-2.361-.356L40.065 7.679a1.096 1.096 0 00.238-1.354c0-.023-.028-.047-.043-.067L36.643.503a1.07 1.07 0 00-.91-.503H18.632a1.078 1.078 0 00-.909.503L14.09 6.298a1.078 1.078 0 00.187 1.345l10.43 11.42a25.97 25.97 0 00-2.363.356 24.792 24.792 0 00-11.903 6.022A24.68 24.68 0 003.4 36.75a24.621 24.621 0 00-.13 13.308A24.676 24.676 0 0010.088 61.5a24.357 24.357 0 003.124 2.533c.111.076.219.163.334.238a25.194 25.194 0 004.835 2.482 24.8 24.8 0 0021.085-1.623l-.711-1.097-.937-1.432zM35.154 2.133l2.124 3.377H32.8l-1.362-3.377h3.716zm-2.54 5.514h4.593l-7.17 7.865 2.576-7.865zm-7.361-5.514h3.875l1.365 3.377h-6.602l1.362-3.377zm-6.026 0h3.715L21.581 5.51h-4.47l2.116-3.377zm-2.053 5.514h4.593l2.577 7.865-7.17-7.865zm6.84 0h6.352l-2.671 8.158-.497 1.504-.492-1.504-.893-2.72-1.799-5.438z" fill="#BE9A5F"/><path d="M37.818 62.6c-.99.553-2.021 1.03-3.085 1.425a21.789 21.789 0 01-15.086 0 21.909 21.909 0 01-3.175-1.465c-.453-.257-.898-.53-1.33-.815a21.937 21.937 0 01-2.383-1.837 16.698 16.698 0 01-1.147-1.093 21.694 21.694 0 01-5.827-11.124 21.662 21.662 0 011.32-12.48 21.73 21.73 0 018.025-9.67 21.825 21.825 0 0112.05-3.626 21.82 21.82 0 0112.05 3.627 21.729 21.729 0 018.026 9.668 21.656 21.656 0 011.32 12.481 21.694 21.694 0 01-5.827 11.124l-.14.147 1.656 2.565c.052-.048.096-.1.147-.147a24.672 24.672 0 006.728-11.444 24.617 24.617 0 00-.185-13.265 24.677 24.677 0 00-7.044-11.254 24.788 24.788 0 00-11.87-5.994 25.098 25.098 0 00-2.361-.356L40.065 7.679a1.096 1.096 0 00.238-1.354c0-.023-.028-.047-.043-.067L36.643.503a1.07 1.07 0 00-.91-.503H18.632a1.078 1.078 0 00-.909.503L14.09 6.298a1.078 1.078 0 00.187 1.345l10.43 11.42a25.97 25.97 0 00-2.363.356 24.792 24.792 0 00-11.903 6.022A24.68 24.68 0 003.4 36.75a24.621 24.621 0 00-.13 13.308A24.676 24.676 0 0010.088 61.5a24.357 24.357 0 003.124 2.533c.111.076.219.163.334.238a25.194 25.194 0 004.835 2.482 24.8 24.8 0 0021.085-1.623l-.711-1.097-.937-1.432zM35.154 2.133l2.124 3.377H32.8l-1.362-3.377h3.716zm-2.54 5.514h4.593l-7.17 7.865 2.576-7.865zm-7.361-5.514h3.875l1.365 3.377h-6.602l1.362-3.377zm-6.026 0h3.715L21.581 5.51h-4.47l2.116-3.377zm-2.053 5.514h4.593l2.577 7.865-7.17-7.865zm6.84 0h6.352l-2.671 8.158-.497 1.504-.492-1.504-.893-2.72-1.799-5.438z" fill="#000" fill-opacity=".2"/><path d="M37.818 62.6c-.99.553-2.021 1.03-3.085 1.425a21.789 21.789 0 01-15.086 0 21.909 21.909 0 01-3.175-1.465c-.453-.257-.898-.53-1.33-.815a21.937 21.937 0 01-2.383-1.837 16.698 16.698 0 01-1.147-1.093 21.694 21.694 0 01-5.827-11.124 21.662 21.662 0 011.32-12.48 21.73 21.73 0 018.025-9.67 21.825 21.825 0 0112.05-3.626 21.82 21.82 0 0112.05 3.627 21.729 21.729 0 018.026 9.668 21.656 21.656 0 011.32 12.481 21.694 21.694 0 01-5.827 11.124l-.14.147 1.656 2.565c.052-.048.096-.1.147-.147a24.672 24.672 0 006.728-11.444 24.617 24.617 0 00-.185-13.265 24.677 24.677 0 00-7.044-11.254 24.788 24.788 0 00-11.87-5.994 25.098 25.098 0 00-2.361-.356L40.065 7.679a1.096 1.096 0 00.238-1.354c0-.023-.028-.047-.043-.067L36.643.503a1.07 1.07 0 00-.91-.503H18.632a1.078 1.078 0 00-.909.503L14.09 6.298a1.078 1.078 0 00.187 1.345l10.43 11.42a25.97 25.97 0 00-2.363.356 24.792 24.792 0 00-11.903 6.022A24.68 24.68 0 003.4 36.75a24.621 24.621 0 00-.13 13.308A24.676 24.676 0 0010.088 61.5a24.357 24.357 0 003.124 2.533c.111.076.219.163.334.238a25.194 25.194 0 004.835 2.482 24.8 24.8 0 0021.085-1.623l-.711-1.097-.937-1.432zM35.154 2.133l2.124 3.377H32.8l-1.362-3.377h3.716zm-2.54 5.514h4.593l-7.17 7.865 2.576-7.865zm-7.361-5.514h3.875l1.365 3.377h-6.602l1.362-3.377zm-6.026 0h3.715L21.581 5.51h-4.47l2.116-3.377zm-2.053 5.514h4.593l2.577 7.865-7.17-7.865zm6.84 0h6.352l-2.671 8.158-.497 1.504-.492-1.504-.893-2.72-1.799-5.438z" fill="#000" fill-opacity=".2"/><path d="M44.261 64.025l-.139-.214-.06-.091-.821-1.27-1.648-2.538-.821-1.27v-.028l-12.32-19.028a1.466 1.466 0 00-.118-.146c-.024-.028-.044-.063-.072-.091l-.095-.08-.139-.11a.932.932 0 00-.087-.048.907.907 0 00-.437-.162h-.576c-.052.01-.104.026-.155.044l-.122.04a1.363 1.363 0 00-.171.086l-.08.04a1.518 1.518 0 00-.15.119l-.084.07c-.032.032-.056.068-.083.1a1.448 1.448 0 00-.107.134l-12.307 19-.036.055c.747.673 1.543 1.29 2.382 1.845l.032-.048L27.19 43.173l11.216 17.313.817 1.259 1.473 2.28.155.237.794 1.255.794 1.227 8.075 12.425h3.573l-8.055-12.433-1.77-2.712z" fill="#BE9A5F"/><path d="M44.261 64.025l-.139-.214-.06-.091-.821-1.27-1.648-2.538-.821-1.27v-.028l-12.32-19.028a1.466 1.466 0 00-.118-.146c-.024-.028-.044-.063-.072-.091l-.095-.08-.139-.11a.932.932 0 00-.087-.048.907.907 0 00-.437-.162h-.576c-.052.01-.104.026-.155.044l-.122.04a1.363 1.363 0 00-.171.086l-.08.04a1.518 1.518 0 00-.15.119l-.084.07c-.032.032-.056.068-.083.1a1.448 1.448 0 00-.107.134l-12.307 19-.036.055c.747.673 1.543 1.29 2.382 1.845l.032-.048L27.19 43.173l11.216 17.313.817 1.259 1.473 2.28.155.237.794 1.255.794 1.227 8.075 12.425h3.573l-8.055-12.433-1.77-2.712z" fill="#000" fill-opacity=".2"/><path d="M44.261 64.025l-.139-.214-.06-.091-.821-1.27-1.648-2.538-.821-1.27v-.028l-12.32-19.028a1.466 1.466 0 00-.118-.146c-.024-.028-.044-.063-.072-.091l-.095-.08-.139-.11a.932.932 0 00-.087-.048.907.907 0 00-.437-.162h-.576c-.052.01-.104.026-.155.044l-.122.04a1.363 1.363 0 00-.171.086l-.08.04a1.518 1.518 0 00-.15.119l-.084.07c-.032.032-.056.068-.083.1a1.448 1.448 0 00-.107.134l-12.307 19-.036.055c.747.673 1.543 1.29 2.382 1.845l.032-.048L27.19 43.173l11.216 17.313.817 1.259 1.473 2.28.155.237.794 1.255.794 1.227 8.075 12.425h3.573l-8.055-12.433-1.77-2.712z" fill="#000" fill-opacity=".2"/></svg>