<svg width="60" height="60" fill="none" xmlns="http://www.w3.org/2000/svg"><path d="M32 18.8a2 2 0 10-4 0h4zm-4 22.4a2 2 0 104 0h-4zM41.2 32a2 2 0 100-4v4zm-22.4-4a2 2 0 100 4v-4zm9.2-9.2V30h4V18.8h-4zM28 30v11.2h4V30h-4zm2 2h11.2v-4H30v4zm0-4H18.8v4H30v-4zm26 2c0 14.36-11.64 26-26 26v4c16.569 0 30-13.431 30-30h-4zM30 56C15.64 56 4 44.36 4 30H0c0 16.569 13.431 30 30 30v-4zM4 30C4 15.64 15.64 4 30 4V0C13.431 0 0 13.431 0 30h4zM30 4c14.36 0 26 11.64 26 26h4C60 13.431 46.569 0 30 0v4z" fill="#C0843C"/></svg>