<svg width="97" height="70" fill="none" xmlns="http://www.w3.org/2000/svg"><path d="M97 34.698c0-.237 0-.506-.01-.818-.012-.873-.033-1.853-.055-2.898-.087-3.006-.238-6-.476-8.823-.325-3.889-.801-7.131-1.451-9.566a15.012 15.012 0 00-3.896-6.72 15.122 15.122 0 00-6.746-3.89C81.302 1.162 75.305.656 66.861.344A516.64 516.64 0 0054.248.043C52.745.022 51.349.011 50.091 0H46.91c-1.256.01-2.653.022-4.158.043-4.297.054-8.595.15-12.612.302-8.444.323-14.452.83-17.505 1.637a15.103 15.103 0 00-6.747 3.89 14.995 14.995 0 00-3.895 6.721C1.332 15.028.866 18.27.542 22.16a161.41 161.41 0 00-.477 8.823C.032 32.027.022 33.007.011 33.88c0 .312-.011.581-.011.818v.604c0 .237 0 .506.01.818.012.873.033 1.853.055 2.898.087 3.006.238 6 .476 8.823.325 3.889.801 7.131 1.451 9.566a15.049 15.049 0 0010.642 10.61c3.053.82 9.061 1.326 17.505 1.638 4.017.151 8.315.248 12.612.302 1.505.022 2.902.032 4.158.043h3.182c1.256-.01 2.653-.022 4.157-.043 4.298-.054 8.596-.15 12.613-.302 8.444-.323 14.452-.83 17.505-1.637a15.03 15.03 0 0010.642-10.611c.66-2.435 1.126-5.677 1.45-9.566.239-2.822.39-5.817.477-8.823.032-1.045.043-2.025.054-2.898 0-.312.011-.581.011-.818v-.604zm-7.795.56c0 .227 0 .474-.01.765-.011.84-.033 1.767-.055 2.769a144.908 144.908 0 01-.454 8.392c-.293 3.469-.704 6.313-1.213 8.22a7.266 7.266 0 01-5.131 5.116c-2.274.603-8 1.088-15.784 1.379-3.941.15-8.185.248-12.418.302-1.483.021-2.858.032-4.092.032h-3.096l-4.092-.032a495.29 495.29 0 01-12.418-.302c-7.783-.302-13.521-.776-15.784-1.379a7.285 7.285 0 01-5.131-5.117c-.509-1.907-.92-4.75-1.213-8.22-.227-2.66-.368-5.526-.454-8.391-.033-1.002-.044-1.94-.055-2.769 0-.29-.01-.549-.01-.765v-.517c0-.226 0-.474.01-.764.011-.84.033-1.767.055-2.769.075-2.865.227-5.73.454-8.392.293-3.468.704-6.313 1.213-8.22a7.266 7.266 0 015.131-5.116c2.274-.603 8-1.088 15.784-1.38 3.941-.15 8.185-.247 12.418-.3 1.483-.022 2.858-.033 4.092-.033h3.096l4.092.032c4.233.054 8.466.151 12.418.302 7.783.302 13.521.776 15.784 1.379a7.285 7.285 0 015.131 5.117c.509 1.906.92 4.75 1.213 8.22.227 2.66.368 5.526.454 8.391.033 1.002.044 1.94.055 2.769 0 .29.01.549.01.765v.517zm-50.34 14.177l25.116-14.543-25.116-14.327v28.87z" fill="#C0843C"/></svg>